<svg version="1.1" xmlns="http://www.w3.org/2000/svg" xmlns:xlink="http://www.w3.org/1999/xlink" width="217.5654296875" height="84"><defs/><g><g><rect fill="#C0C0C0" stroke="none" x="1159" y="663" width="197.5654296875" height="64" transform="matrix(1 0 0 1 -1142 -646)" fill-opacity="0.2"/></g><g><rect fill="#ffffff" stroke="none" x="1152" y="656" width="197.5654296875" height="64" transform="matrix(1 0 0 1 -1142 -646)"/></g><g><path fill="none" stroke="#000000" paint-order="fill stroke markers" d=" M 10 10 L 207.5654296875 10 L 207.5654296875 74 L 10 74 L 10 10 Z Z" stroke-miterlimit="10" stroke-dasharray=""/></g><g><path fill="none" stroke="#000000" paint-order="fill stroke markers" d=" M 10 33 L 207.5654296875 33" stroke-miterlimit="10" stroke-dasharray=""/></g><g><path fill="none" stroke="#000000" paint-order="fill stroke markers" d=" M 38.05908203125 33 L 38.05908203125 74" stroke-miterlimit="10" stroke-dasharray=""/></g><g><path fill="none" stroke="#000000" paint-order="fill stroke markers" d=" M 95.0380859375 33 L 95.0380859375 74" stroke-miterlimit="10" stroke-dasharray=""/></g><g><g><path fill="none" stroke="none"/><text fill="#000000" stroke="none" font-family="Arial" font-size="13px" font-style="normal" font-weight="bold" text-decoration="undefined" x="1250.78271484375" y="667.5" text-anchor="middle" dominant-baseline="central" transform="matrix(1 0 0 1 -1142 -646)">CUSTOMER</text></g></g><g><g><path fill="none" stroke="none"/><text fill="#000000" stroke="none" font-family="Arial" font-size="13px" font-style="normal" font-weight="normal" text-decoration="undefined" x="1157" y="684" text-anchor="start" dominant-baseline="text-before-edge" transform="matrix(1 0 0 1 -1142 -646)">PK</text></g></g><g><g><path fill="none" stroke="none"/><text fill="#000000" stroke="none" font-family="Arial" font-size="13px" font-style="normal" font-weight="normal" text-decoration="undefined" x="1185.05908203125" y="684" text-anchor="start" dominant-baseline="text-before-edge" transform="matrix(1 0 0 1 -1142 -646)">int</text></g></g><g><g><path fill="none" stroke="none"/><text fill="#000000" stroke="none" font-family="Arial" font-size="13px" font-style="normal" font-weight="normal" text-decoration="undefined" x="1242.0380859375" y="684" text-anchor="start" dominant-baseline="text-before-edge" transform="matrix(1 0 0 1 -1142 -646)">customer_id</text></g></g><g><g><path fill="none" stroke="none"/><text fill="#000000" stroke="none" font-family="Arial" font-size="13px" font-style="normal" font-weight="normal" text-decoration="undefined" x="1157" y="690.5" text-anchor="start" dominant-baseline="central" transform="matrix(1 0 0 1 -1142 -646)"></text></g></g><g><g><path fill="none" stroke="none"/><text fill="#000000" stroke="none" font-family="Arial" font-size="13px" font-style="normal" font-weight="normal" text-decoration="undefined" x="1157" y="699" text-anchor="start" dominant-baseline="text-before-edge" transform="matrix(1 0 0 1 -1142 -646)"></text></g></g><g><g><path fill="none" stroke="none"/><text fill="#000000" stroke="none" font-family="Arial" font-size="13px" font-style="normal" font-weight="normal" text-decoration="undefined" x="1185.05908203125" y="699" text-anchor="start" dominant-baseline="text-before-edge" transform="matrix(1 0 0 1 -1142 -646)">varchar</text></g></g><g><g><path fill="none" stroke="none"/><text fill="#000000" stroke="none" font-family="Arial" font-size="13px" font-style="normal" font-weight="normal" text-decoration="undefined" x="1242.0380859375" y="699" text-anchor="start" dominant-baseline="text-before-edge" transform="matrix(1 0 0 1 -1142 -646)">phone_number</text></g></g><g><g><path fill="none" stroke="none"/><text fill="#000000" stroke="none" font-family="Arial" font-size="13px" font-style="normal" font-weight="normal" text-decoration="undefined" x="1157" y="705.5" text-anchor="start" dominant-baseline="central" transform="matrix(1 0 0 1 -1142 -646)"></text></g></g></g></svg>